<?xml version="1.0" encoding="utf-8"?>
<!-- Generator: Adobe Illustrator 27.0.0, SVG Export Plug-In . SVG Version: 6.00 Build 0)  -->
<svg version="1.1" id="Capa_1" xmlns="http://www.w3.org/2000/svg" xmlns:xlink="http://www.w3.org/1999/xlink" x="0px" y="0px"
	 viewBox="0 0 595.3 841.9" style="enable-background:new 0 0 595.3 841.9;" xml:space="preserve">
<style type="text/css">
	.st0{fill:#FFFFFF;}
</style>
<g>
	<g>
		<path class="st0" d="M-1033.7-98.3v84.5h68.9l15.7,15.7V-98.3H-1033.7z M-964.8-29.4h-53.2v-53.2h53.2V-29.4z"/>
		<g>
			<polygon class="st0" points="-1002.2,-106.1 -1041.6,-106.1 -1041.6,-66.8 -1057.2,-82.4 -1057.2,-121.8 -1017.9,-121.8 			"/>
		</g>
	</g>
	<g>
		<path class="st0" d="M-867.7-56h-23.5v-31.8h6.9v25.8h16.7L-867.7-56L-867.7-56z"/>
		<path class="st0" d="M-863.5-68.8v-18.9h6.9v18.9c0,6,4.6,7.5,7.4,7.5c2.7,0,7.3-1.6,7.3-7.5v-18.9h6.9v18.9
			c0,8.1-5.6,13.4-14.1,13.4C-857.9-55.4-863.5-60.7-863.5-68.8z"/>
		<path class="st0" d="M-812.5-55.3c-9.4,0-17.2-7.4-17.2-16.5c0-9.1,7.7-16.4,17.2-16.4c6.4,0,12,3.5,15.1,8.7l-6.4,2.5
			c-1.9-2.8-5.1-5-8.7-5c-5.6,0-10.2,4.8-10.2,10.2c0,5.4,4.6,10.3,10.2,10.3c3.5,0,6.8-2.3,8.7-5.1l6.4,2.5
			C-800.5-58.8-806.1-55.3-812.5-55.3z"/>
		<path class="st0" d="M-780.2-88.7l17.4,32.8h-7.5l-2.5-4.9h-14.8l-2.5,4.9h-7.6L-780.2-88.7z M-776.1-66.7l-4.1-8.3l-4,8.3H-776.1
			z"/>
		<path class="st0" d="M-748.4-61.5c3.8,0,5.9-1.7,5.9-3.5c0-2.5-3.3-3.2-7.1-3.8c-4-0.7-12.6-2.1-12.6-9.7s7-9.6,12.6-9.6
			c5.6,0,9.1,1.7,12.6,4.2l-3.8,5.2c-2.8-2-5.9-3.3-9-3.3c-2,0-5.5,0.6-5.5,3.1c0,2.3,3.4,2.8,6.3,3.3c5.1,1.1,13.4,1.7,13.4,10.3
			c0,6.6-5.1,9.9-12.7,9.9c-6.9,0-11.4-2.5-14.4-5l3.7-5.2C-756.7-63.6-752.1-61.5-748.4-61.5z"/>
		<path class="st0" d="M-719.1-71.8c0-9.1,7.7-16.5,17.1-16.5c9.5,0,17.2,7.4,17.2,16.5c0,9.2-7.7,16.5-17.2,16.5
			C-711.5-55.3-719.1-62.7-719.1-71.8z M-712.3-71.8c0,5.5,4.6,10.3,10.3,10.3c5.7,0,10.3-4.8,10.3-10.3c0-5.4-4.6-10.2-10.3-10.2
			C-707.6-82-712.3-77.3-712.3-71.8z"/>
		<path class="st0" d="M-679.3-56v-31.8h14.1c6.9,0,11.4,4.5,11.4,11c0,4.6-2.5,8.4-6.5,10c2.8,3.4,5.6,7.3,8.3,10.6h-8.3
			c-2.6-3.3-5-6.5-7.6-9.9h-4.7v9.9L-679.3-56L-679.3-56z M-665.1-71.8c2.1,0,4.7-1.6,4.7-4.9c0-1.6-0.6-5.1-4.7-5.1h-7.3v10H-665.1
			z"/>
		<path class="st0" d="M-649.1-71.8c0-9.1,7.7-16.5,17.1-16.5c9.5,0,17.2,7.4,17.2,16.5c0,9.2-7.7,16.5-17.2,16.5
			C-641.5-55.3-649.1-62.7-649.1-71.8z M-642.3-71.8c0,5.5,4.6,10.3,10.3,10.3c5.7,0,10.3-4.8,10.3-10.3c0-5.4-4.6-10.2-10.3-10.2
			S-642.3-77.3-642.3-71.8z"/>
		<path class="st0" d="M-596.5-61.5c3.8,0,5.9-1.7,5.9-3.5c0-2.5-3.3-3.2-7.1-3.8c-4-0.7-12.6-2.1-12.6-9.7s7-9.6,12.6-9.6
			c5.6,0,9.1,1.7,12.6,4.2l-3.8,5.2c-2.8-2-5.9-3.3-9-3.3c-2,0-5.5,0.6-5.5,3.1c0,2.3,3.4,2.8,6.3,3.3c5.1,1.1,13.4,1.7,13.4,10.3
			c0,6.6-5.1,9.9-12.7,9.9c-6.9,0-11.4-2.5-14.4-5l3.7-5.2C-604.8-63.6-600.2-61.5-596.5-61.5z"/>
		<path class="st0" d="M-563.3-55.3c-9.4,0-17.2-7.4-17.2-16.5c0-9.1,7.7-16.4,17.2-16.4c6.4,0,12,3.5,15.1,8.7l-6.4,2.5
			c-1.9-2.8-5.1-5-8.7-5c-5.6,0-10.2,4.8-10.2,10.2c0,5.4,4.6,10.3,10.2,10.3c3.5,0,6.8-2.3,8.7-5.1l6.4,2.5
			C-551.2-58.8-556.9-55.3-563.3-55.3z"/>
		<path class="st0" d="M-545-71.8c0-9.1,7.7-16.5,17.1-16.5c9.5,0,17.2,7.4,17.2,16.5c0,9.2-7.7,16.5-17.2,16.5
			C-537.4-55.3-545-62.7-545-71.8z M-538.3-71.8c0,5.5,4.6,10.3,10.3,10.3c5.7,0,10.3-4.8,10.3-10.3c0-5.4-4.6-10.2-10.3-10.2
			C-533.6-82-538.3-77.3-538.3-71.8z"/>
	</g>
	<g>
		<path class="st0" d="M-883.4-26.9h-7.4v-18.7h7.4c2.7,0,4.9,0.8,6.6,2.4c0.9,0.8,1.6,1.9,2,3c0.5,1.2,0.7,2.5,0.7,4
			c0,1.5-0.2,2.9-0.7,4c-0.5,1.2-1.1,2.2-2,3c-0.8,0.7-1.8,1.4-2.9,1.7C-880.9-27-882.1-26.9-883.4-26.9z M-887.3-30.1h3.8
			c0.7,0,1.3-0.1,2-0.2c0.7-0.2,1.3-0.5,1.9-0.9c0.6-0.5,1-1.1,1.4-1.9c0.3-0.8,0.6-1.9,0.6-3.2s-0.2-2.4-0.6-3.2
			c-0.3-0.8-0.8-1.5-1.4-1.9s-1.2-0.7-1.9-0.9c-0.7-0.2-1.4-0.2-2-0.2h-3.8L-887.3-30.1L-887.3-30.1z"/>
		<path class="st0" d="M-866.9-26.9h-3.6v-18.7h3.6V-26.9z"/>
		<path class="st0" d="M-863-29.3l2-2.9c0.9,0.7,1.9,1.2,2.9,1.7c1,0.5,2,0.7,3.1,0.7c0.6,0,1.1-0.1,1.6-0.2
			c0.4-0.2,0.8-0.3,1.1-0.6c0.3-0.2,0.6-0.5,0.7-0.8c0.2-0.3,0.2-0.6,0.2-0.9c0-0.4-0.1-0.7-0.3-1s-0.6-0.5-0.9-0.7
			c-0.4-0.2-0.8-0.3-1.4-0.4c-0.5-0.1-1.1-0.2-1.6-0.3c-0.4-0.1-0.8-0.2-1.3-0.2c-0.5-0.1-1-0.2-1.6-0.4c-0.5-0.2-1.1-0.4-1.6-0.7
			c-0.5-0.2-1-0.6-1.4-1s-0.7-0.9-1-1.5s-0.4-1.2-0.4-2c0-1.1,0.2-2,0.7-2.7c0.4-0.7,1-1.3,1.7-1.7c0.7-0.4,1.5-0.7,2.3-0.9
			c0.8-0.2,1.6-0.2,2.5-0.2c0.8,0,1.5,0.1,2.1,0.2c0.7,0.1,1.2,0.2,1.7,0.4c0.5,0.2,1.1,0.4,1.6,0.7c0.5,0.3,1.1,0.7,1.6,1.1l-2,2.8
			c-0.9-0.7-1.7-1.1-2.5-1.4c-0.8-0.3-1.7-0.5-2.6-0.5c-0.3,0-0.7,0-1.1,0.1s-0.7,0.2-1.1,0.4c-0.3,0.2-0.7,0.4-0.9,0.7
			c-0.2,0.2-0.3,0.6-0.3,1s0.2,0.7,0.4,1c0.2,0.2,0.7,0.5,1.1,0.7s0.9,0.3,1.4,0.4c0.5,0.1,1,0.2,1.5,0.3c0.3,0.1,0.8,0.2,1.3,0.2
			s1,0.2,1.5,0.3c0.5,0.2,1.1,0.3,1.6,0.7c0.5,0.2,1,0.6,1.4,1s0.7,0.9,1,1.5c0.2,0.6,0.4,1.3,0.4,2.1c0,1-0.2,1.8-0.5,2.5
			c-0.3,0.7-0.8,1.3-1.5,1.8c-0.7,0.5-1.4,0.8-2.3,1.1s-1.8,0.3-2.9,0.3c-1,0-1.8-0.1-2.5-0.2c-0.7-0.2-1.4-0.3-2-0.6
			c-0.7-0.2-1.2-0.6-1.7-0.9C-861.9-28.6-862.4-28.9-863-29.3z"/>
		<path class="st0" d="M-841.3-42.5v4.7h9.1v3.3h-9.1v4.4h10.2v3.2h-13.8v-18.7h13.8v3.2H-841.3z"/>
		<path class="st0" d="M-811.5-26.9L-823.8-38v11.1h-3.6v-18.7h0.4l12.3,11.3v-11.3h3.6v18.7H-811.5z M-816.4-46.7
			c0.4-0.2,0.8-0.5,1.1-0.9c0.2-0.2,0.4-0.6,0.6-0.8c0.2-0.2,0.2-0.5,0.3-0.7l-2-0.7c-0.1,0.2-0.2,0.4-0.3,0.6
			c-0.1,0.2-0.2,0.2-0.4,0.4s-0.3,0.2-0.6,0.2c-0.2,0-0.4-0.1-0.6-0.2c-0.2-0.1-0.3-0.2-0.5-0.4c-0.2-0.2-0.6-0.5-1-0.7
			c-0.4-0.2-1-0.4-1.6-0.4c-0.5,0-0.9,0.2-1.3,0.3c-0.3,0.2-0.7,0.5-1,0.8c-0.2,0.3-0.5,0.7-0.7,1c-0.2,0.3-0.2,0.7-0.3,1l2.1,0.6
			c0.1-0.3,0.2-0.5,0.3-0.7c0.1-0.2,0.2-0.3,0.3-0.5c0.2-0.2,0.3-0.2,0.5-0.2c0.2,0,0.5,0.1,0.7,0.2c0.2,0.1,0.3,0.2,0.5,0.4
			c0.2,0.2,0.6,0.5,0.9,0.7c0.3,0.2,0.9,0.4,1.5,0.4h0.1C-817.3-46.3-816.8-46.4-816.4-46.7z"/>
		<path class="st0" d="M-798.2-26.6c-1.3,0-2.6-0.2-3.8-0.7c-1.1-0.5-2.2-1.2-3.1-2.1s-1.6-1.9-2.1-3.1c-0.6-1.2-0.7-2.5-0.7-3.8
			s0.2-2.6,0.7-3.8c0.5-1.2,1.2-2.2,2.1-3.1s1.9-1.6,3.1-2.1c1.1-0.5,2.5-0.7,3.8-0.7s2.6,0.2,3.8,0.7c1.1,0.5,2.2,1.2,3.1,2.1
			s1.6,1.9,2.1,3.1c0.5,1.2,0.7,2.5,0.7,3.8c0,1.4-0.2,2.6-0.7,3.8c-0.5,1.1-1.2,2.2-2.1,3.1s-1.9,1.6-3.1,2.1
			C-795.6-26.8-796.9-26.6-798.2-26.6z M-798.2-42.6c-0.8,0-1.6,0.2-2.4,0.5c-0.7,0.3-1.4,0.8-2,1.4s-1,1.2-1.3,2
			c-0.3,0.8-0.5,1.6-0.5,2.5c0,0.8,0.2,1.6,0.5,2.5c0.3,0.7,0.7,1.5,1.3,2s1.2,1.1,2,1.4c0.7,0.3,1.6,0.5,2.4,0.5s1.6-0.2,2.4-0.5
			c0.7-0.3,1.4-0.8,2-1.4c0.6-0.6,1-1.3,1.3-2c0.3-0.7,0.5-1.6,0.5-2.5c0-0.8-0.2-1.6-0.5-2.5c-0.3-0.8-0.7-1.5-1.3-2
			c-0.6-0.6-1.2-1.1-2-1.4C-796.6-42.5-797.4-42.6-798.2-42.6z"/>
		<path class="st0" d="M-758.4-37.1c0,0.3,0,0.7,0,1c0,0.2,0,0.6,0,0.8c0,0.2,0,0.5,0,0.6c-0.1,1.1-0.4,2.3-1,3.3
			c-0.6,1-1.2,1.9-2,2.6c-0.8,0.7-1.8,1.3-2.9,1.7c-1.1,0.4-2.3,0.7-3.4,0.7c-1.3,0-2.6-0.2-3.8-0.7c-1.1-0.5-2.2-1.2-3.1-2.1
			c-0.9-0.9-1.6-1.9-2.1-3.1c-0.5-1.1-0.7-2.5-0.7-3.8s0.2-2.6,0.7-3.8c0.5-1.2,1.2-2.2,2.1-3.1c0.9-0.9,1.9-1.6,3.1-2.1
			c1.1-0.5,2.5-0.7,3.8-0.7c1.7,0,3.3,0.4,4.7,1.1c1.4,0.8,2.5,1.8,3.4,3.2l-3.1,1.9c-0.6-0.8-1.2-1.5-2.1-2
			c-0.9-0.6-1.8-0.8-2.9-0.8c-0.8,0-1.6,0.2-2.4,0.5c-0.7,0.3-1.4,0.8-2,1.4c-0.6,0.6-1,1.2-1.3,2c-0.3,0.8-0.5,1.6-0.5,2.5
			c0,0.8,0.2,1.6,0.5,2.5c0.3,0.7,0.7,1.5,1.3,2s1.2,1.1,2,1.4s1.6,0.5,2.4,0.5c0.7,0,1.3-0.1,1.9-0.3c0.6-0.2,1.1-0.5,1.6-0.8
			c0.5-0.3,0.9-0.8,1.3-1.3c0.3-0.5,0.7-1.1,0.8-1.6h-6.9v-3.2C-769.1-37.1-758.4-37.1-758.4-37.1z"/>
		<path class="st0" d="M-751.8-26.9h-3.6v-18.7h8.5c1,0,1.8,0.2,2.6,0.5c0.8,0.3,1.5,0.7,2,1.3c0.6,0.6,1,1.2,1.3,2s0.5,1.6,0.5,2.6
			c0,1.4-0.3,2.6-1.1,3.7c-0.7,1.1-1.6,1.8-2.9,2.3c1.6,2,3.1,4.2,4.7,6.3h-4.2c-0.7-1-1.5-2-2.2-2.9c-0.7-1-1.4-2-2.1-3h-3.5V-26.9
			z M-751.8-36h4.9c0.3,0,0.7-0.1,1-0.2c0.3-0.2,0.7-0.3,0.9-0.6c0.2-0.2,0.5-0.6,0.7-1c0.2-0.4,0.2-0.8,0.2-1.4c0-0.2,0-0.6-0.1-1
			c-0.1-0.4-0.2-0.7-0.4-1.1c-0.2-0.3-0.5-0.7-0.9-0.9s-0.9-0.3-1.5-0.3h-4.9L-751.8-36L-751.8-36z"/>
		<path class="st0" d="M-739.2-26.9l9.6-18.7h0.3l9.6,18.7h-3.9l-1.5-2.9h-8.8l-1.5,2.9C-735.4-26.9-739.2-26.9-739.2-26.9z
			 M-732-32.9h5.3l-2.7-5.6L-732-32.9z M-727.6-50.4l2.9,1.3l-3.4,2.6h-2.5L-727.6-50.4z"/>
		<path class="st0" d="M-713.8-42.5v4.7h9.1v3.3h-9.1v7.6h-3.6v-18.7h13.8v3.2H-713.8z"/>
		<path class="st0" d="M-696.7-26.9h-3.6v-18.7h3.6V-26.9z"/>
		<path class="st0" d="M-674.9-31.5c-0.4,0.7-0.9,1.4-1.5,2c-0.6,0.6-1.2,1.1-2,1.6c-0.7,0.4-1.5,0.7-2.4,1
			c-0.8,0.2-1.7,0.3-2.6,0.3c-1.3,0-2.6-0.2-3.8-0.7c-1.1-0.5-2.2-1.2-3.1-2.1s-1.6-1.9-2.1-3.1c-0.5-1.1-0.7-2.5-0.7-3.8
			s0.2-2.6,0.7-3.8c0.5-1.1,1.2-2.2,2.1-3.1s1.9-1.6,3.1-2.1c1.1-0.5,2.5-0.7,3.8-0.7c0.9,0,1.8,0.1,2.6,0.3c0.8,0.2,1.6,0.6,2.4,1
			c0.7,0.4,1.4,1,2,1.6c0.6,0.6,1.1,1.3,1.5,2l-3.3,1.4c-0.2-0.4-0.6-0.8-1-1.1c-0.3-0.3-0.7-0.7-1.2-1c-0.4-0.2-0.9-0.5-1.4-0.7
			c-0.5-0.2-1-0.2-1.6-0.2c-0.8,0-1.6,0.2-2.4,0.5c-0.7,0.3-1.4,0.8-2,1.4c-0.6,0.6-1,1.2-1.3,2c-0.3,0.8-0.5,1.6-0.5,2.5
			c0,0.8,0.2,1.6,0.5,2.5c0.3,0.7,0.7,1.5,1.3,2s1.2,1.1,2,1.4s1.6,0.5,2.4,0.5c0.5,0,1.1-0.1,1.6-0.2c0.5-0.2,1-0.3,1.4-0.7
			c0.4-0.2,0.8-0.6,1.2-1c0.3-0.3,0.7-0.7,1-1.1L-674.9-31.5z"/>
		<path class="st0" d="M-663.3-26.6c-1.3,0-2.6-0.2-3.8-0.7c-1.1-0.5-2.2-1.2-3.1-2.1s-1.6-1.9-2.1-3.1c-0.5-1.1-0.7-2.5-0.7-3.8
			s0.2-2.6,0.7-3.8c0.5-1.2,1.2-2.2,2.1-3.1s1.9-1.6,3.1-2.1c1.1-0.5,2.5-0.7,3.8-0.7s2.6,0.2,3.8,0.7c1.1,0.5,2.2,1.2,3.1,2.1
			s1.6,1.9,2.1,3.1c0.5,1.2,0.7,2.5,0.7,3.8c0,1.4-0.2,2.6-0.7,3.8c-0.5,1.1-1.2,2.2-2.1,3.1s-1.9,1.6-3.1,2.1
			C-660.8-26.8-662-26.6-663.3-26.6z M-663.3-42.6c-0.8,0-1.6,0.2-2.4,0.5c-0.7,0.3-1.4,0.8-2,1.4s-1,1.2-1.3,2
			c-0.3,0.8-0.5,1.6-0.5,2.5c0,0.8,0.2,1.6,0.5,2.5c0.3,0.7,0.7,1.5,1.3,2c0.6,0.6,1.2,1.1,2,1.4c0.7,0.3,1.6,0.5,2.4,0.5
			s1.6-0.2,2.4-0.5c0.7-0.3,1.4-0.8,2-1.4s1-1.3,1.3-2c0.3-0.7,0.5-1.6,0.5-2.5c0-0.8-0.2-1.6-0.5-2.5c-0.3-0.8-0.7-1.5-1.3-2
			c-0.6-0.6-1.2-1.1-2-1.4C-661.7-42.5-662.5-42.6-663.3-42.6z"/>
	</g>
</g>
</svg>
