<?xml version="1.0" encoding="utf-8"?>
<!-- Generator: Adobe Illustrator 27.0.0, SVG Export Plug-In . SVG Version: 6.00 Build 0)  -->
<svg version="1.1" id="Capa_1" xmlns="http://www.w3.org/2000/svg" xmlns:xlink="http://www.w3.org/1999/xlink" x="0px" y="0px"
	 viewBox="0 0 507.1 449.2" style="enable-background:new 0 0 507.1 449.2;" xml:space="preserve">
<style type="text/css">
	.st0{fill:#FFFFFF;}
</style>
<g>
	<path class="st0" d="M493.9,87.4c-4.3,11.2-7,22.9-10.3,34.4c-15.3,53.2-30.5,106.6-45.8,159.9c-2.8,10-7.1,13.2-17.6,13.2
		c-82.5,0-164.9,0-247.4,0c-11.3,0-17.8,5.2-17.8,14.1s6.6,14.1,17.8,14.1c82.3,0,164.6,0,246.9,0c11.3,0,17.8,5.2,17.8,14.1
		s-6.5,14.1-17.8,14.1c-5.9,0-11.9,0-19.2,0c28.6,6.3,39.6,29.5,36.3,49.5c-3.1,19.3-21.5,35.1-41.8,35c-21.9-0.2-39.5-16.4-41.8-39
		c-1.8-18.7,10-39.7,36.2-45.2c-62.5,0-124.2,0-185.7,0c11.5,2.5,21.1,8.2,27.8,18c6.7,9.7,8.8,20.5,6.9,32.2
		c-3.2,19.3-22.6,35-42.3,34.1c-22.5-0.9-39.4-17.5-41.1-40.3c-1.6-20.4,13.5-39,35.4-44.2c-6.9,0-13.8,0.1-20.7,0
		c-19.7-0.4-35.5-11.9-41-29.9c-5.9-19.2,2.4-39.6,20-49.3c1-0.6,2.1-1.2,3.4-2c-16.9-76.2-33.9-152.3-50.8-228.6
		c-9.1,0-18,0-26.9,0c-15.5,0-30.9,0.1-46.5,0c-10.7-0.1-17.7-9.8-13.7-19.2c2.3-5.5,6.7-8.7,12.7-8.8c28.5-0.1,56.9-0.2,85.4,0
		c7.7,0,12.5,4.5,14.4,12.4c3.3,14.5,6.5,29,9.7,43.4c2.2,0.9,4.2,0.5,6.2,0.5c110.8,0,221.5,0.1,332.3-0.1
		c8.7,0,15.1,2.4,18.9,10.4C493.9,82.4,493.9,84.8,493.9,87.4z"/>
</g>
</svg>
