<?xml version="1.0" encoding="utf-8"?>
<!-- Generator: Adobe Illustrator 27.0.0, SVG Export Plug-In . SVG Version: 6.00 Build 0)  -->
<svg version="1.1" id="Capa_1" xmlns="http://www.w3.org/2000/svg" xmlns:xlink="http://www.w3.org/1999/xlink" x="0px" y="0px"
	 viewBox="0 0 595.3 159.5" style="enable-background:new 0 0 595.3 159.5;" xml:space="preserve">
<style type="text/css">
	.st0{fill:url(#SVGID_1_);}
	.st1{fill:url(#SVGID_00000133500487889370148680000005438157503315633841_);}
	.st2{fill:#FFFFFF;}
</style>
<g>
	<linearGradient id="SVGID_1_" gradientUnits="userSpaceOnUse" x1="30.1843" y1="94.8898" x2="139.164" y2="94.8898">
		<stop  offset="4.528621e-07" style="stop-color:#D5390D"/>
		<stop  offset="1" style="stop-color:#DF6718"/>
	</linearGradient>
	<path class="st0" d="M139.2,30.3h-109v109H119l20.2,20.2L139.2,30.3z M119,119.1H50.4V50.5H119V119.1z"/>
	
		<linearGradient id="SVGID_00000134222451578600383910000003861079520753713578_" gradientUnits="userSpaceOnUse" x1="-0.117" y1="35.4686" x2="70.8202" y2="35.4686">
		<stop  offset="4.528621e-07" style="stop-color:#D5390D"/>
		<stop  offset="1" style="stop-color:#DF6718"/>
	</linearGradient>
	<polygon style="fill:url(#SVGID_00000134222451578600383910000003861079520753713578_);" points="50.6,0 -0.1,0 -0.1,50.7 
		20.1,70.9 20.1,20.2 70.8,20.2 	"/>
</g>
<g>
	<path class="st2" d="M216.8,83.3h-25V49.7h7.3V77h17.6V83.3z"/>
	<path class="st2" d="M221.3,69.7v-20h7.3v20c0,6.4,4.9,8,7.8,8c2.9,0,7.7-1.6,7.7-8v-20h7.3v20c0,8.6-5.9,14.2-15,14.2
		C227.2,83.9,221.3,78.3,221.3,69.7z"/>
	<path class="st2" d="M275.3,84c-10,0-18.2-7.8-18.2-17.5c0-9.6,8.2-17.4,18.2-17.4c6.8,0,12.8,3.7,16,9.2l-6.8,2.6
		c-2-2.9-5.5-5.3-9.2-5.3c-6,0-10.8,5.1-10.8,10.8s4.8,10.9,10.8,10.9c3.7,0,7.2-2.4,9.2-5.3l6.8,2.6C288.1,80.3,282.1,84,275.3,84z
		"/>
	<path class="st2" d="M309.6,48.6l18.5,34.7h-8l-2.7-5.2h-15.7l-2.6,5.2h-8L309.6,48.6z M314,72l-4.3-8.8l-4.3,8.8H314z"/>
	<path class="st2" d="M343.3,77.4c4,0,6.2-1.8,6.2-3.7c0-2.7-3.6-3.4-7.5-4.1c-4.2-0.7-13.4-2.3-13.4-10.3c0-8,7.4-10.2,13.4-10.2
		c5.9,0,9.6,1.8,13.3,4.5l-4.1,5.5c-2.9-2.1-6.3-3.5-9.5-3.5c-2.1,0-5.8,0.6-5.8,3.3c0,2.4,3.6,2.9,6.7,3.6
		c5.5,1.2,14.2,1.8,14.2,10.9c0,7-5.4,10.5-13.4,10.5c-7.3,0-12.1-2.6-15.2-5.3l3.9-5.6C334.5,75.2,339.4,77.4,343.3,77.4z"/>
	<path class="st2" d="M374.4,66.5c0-9.6,8.1-17.5,18.1-17.5c10,0,18.2,7.9,18.2,17.5c0,9.7-8.2,17.5-18.2,17.5
		C382.5,84,374.4,76.2,374.4,66.5z M381.6,66.5c0,5.8,4.9,10.9,10.9,10.9c6,0,10.9-5.1,10.9-10.9c0-5.8-4.8-10.8-10.9-10.8
		C386.5,55.7,381.6,60.7,381.6,66.5z"/>
	<path class="st2" d="M416.7,83.3V49.7h15c7.2,0,12.2,4.8,12.2,11.7c0,4.9-2.7,8.9-6.9,10.7c2.9,3.6,6,7.7,8.7,11.3h-8.7
		c-2.8-3.5-5.3-6.8-8.1-10.5h-5v10.5H416.7z M431.6,66.5c2.3,0,4.9-1.7,4.9-5.2c0-1.8-0.6-5.4-4.9-5.4h-7.7v10.6H431.6z"/>
	<path class="st2" d="M448.6,66.5c0-9.6,8.1-17.5,18.1-17.5c10,0,18.2,7.9,18.2,17.5c0,9.7-8.2,17.5-18.2,17.5
		C456.7,84,448.6,76.2,448.6,66.5z M455.8,66.5c0,5.8,4.9,10.9,10.9,10.9c6,0,10.9-5.1,10.9-10.9c0-5.8-4.8-10.8-10.9-10.8
		C460.7,55.7,455.8,60.7,455.8,66.5z"/>
	<path class="st2" d="M504.4,77.4c4,0,6.2-1.8,6.2-3.7c0-2.7-3.6-3.4-7.5-4.1c-4.2-0.7-13.4-2.3-13.4-10.3c0-8,7.4-10.2,13.4-10.2
		c5.9,0,9.6,1.8,13.3,4.5l-4.1,5.5c-2.9-2.1-6.3-3.5-9.5-3.5c-2.1,0-5.8,0.6-5.8,3.3c0,2.4,3.6,2.9,6.7,3.6
		c5.5,1.2,14.2,1.8,14.2,10.9c0,7-5.4,10.5-13.4,10.5c-7.3,0-12.1-2.6-15.2-5.3l3.9-5.6C495.6,75.2,500.5,77.4,504.4,77.4z"/>
	<path class="st2" d="M539.7,84c-10,0-18.2-7.8-18.2-17.5c0-9.6,8.2-17.4,18.2-17.4c6.8,0,12.8,3.7,16,9.2l-6.8,2.6
		c-2-2.9-5.5-5.3-9.2-5.3c-6,0-10.8,5.1-10.8,10.8s4.8,10.9,10.8,10.9c3.7,0,7.2-2.4,9.2-5.3l6.8,2.6C552.4,80.3,546.4,84,539.7,84z
		"/>
	<path class="st2" d="M559,66.5c0-9.6,8.1-17.5,18.1-17.5c10,0,18.2,7.9,18.2,17.5c0,9.7-8.2,17.5-18.2,17.5
		C567.1,84,559,76.2,559,66.5z M566.2,66.5c0,5.8,4.9,10.9,10.9,10.9c6,0,10.9-5.1,10.9-10.9c0-5.8-4.8-10.8-10.9-10.8
		C571.1,55.7,566.2,60.7,566.2,66.5z"/>
</g>
<g>
	<path class="st2" d="M200.1,114.1h-7.8V94.3h7.8c2.8,0,5.2,0.8,7,2.5c1,0.9,1.7,2,2.2,3.2c0.5,1.3,0.7,2.7,0.7,4.2
		c0,1.6-0.2,3-0.7,4.2c-0.5,1.3-1.2,2.3-2.2,3.2c-0.9,0.8-1.9,1.4-3.1,1.8C202.8,113.9,201.5,114.1,200.1,114.1z M196.1,110.8h4
		c0.7,0,1.4-0.1,2.1-0.2c0.7-0.2,1.4-0.5,2-1c0.6-0.5,1.1-1.1,1.5-2c0.4-0.9,0.6-2,0.6-3.3c0-1.4-0.2-2.5-0.6-3.4
		c-0.4-0.9-0.9-1.5-1.5-2c-0.6-0.5-1.3-0.8-2-0.9c-0.7-0.2-1.4-0.2-2.1-0.2h-4V110.8z"/>
	<path class="st2" d="M217.7,114.1h-3.8V94.3h3.8V114.1z"/>
	<path class="st2" d="M221.8,111.5l2.1-3c1,0.7,2,1.3,3.1,1.8c1.1,0.5,2.2,0.7,3.3,0.7c0.6,0,1.2-0.1,1.6-0.2
		c0.5-0.2,0.9-0.4,1.2-0.6c0.3-0.2,0.6-0.5,0.7-0.8c0.2-0.3,0.2-0.6,0.2-0.9c0-0.4-0.1-0.7-0.4-1c-0.2-0.3-0.6-0.5-1-0.7
		c-0.4-0.2-0.9-0.3-1.4-0.5c-0.6-0.1-1.1-0.2-1.7-0.4c-0.4-0.1-0.9-0.2-1.4-0.3c-0.5-0.1-1.1-0.2-1.6-0.4c-0.6-0.2-1.1-0.4-1.7-0.7
		c-0.5-0.3-1-0.6-1.5-1.1c-0.4-0.4-0.8-0.9-1-1.5c-0.3-0.6-0.4-1.3-0.4-2.1c0-1.2,0.2-2.1,0.7-2.9c0.5-0.8,1.1-1.4,1.8-1.8
		c0.7-0.4,1.5-0.8,2.4-0.9c0.9-0.2,1.8-0.3,2.6-0.3c0.8,0,1.6,0.1,2.2,0.2c0.7,0.1,1.3,0.3,1.8,0.5c0.6,0.2,1.1,0.5,1.6,0.8
		c0.5,0.3,1.1,0.7,1.7,1.1l-2.1,3c-0.9-0.7-1.8-1.1-2.7-1.5c-0.9-0.3-1.8-0.5-2.7-0.5c-0.3,0-0.7,0-1.1,0.1
		c-0.4,0.1-0.8,0.2-1.2,0.4c-0.4,0.2-0.7,0.4-0.9,0.7c-0.2,0.3-0.4,0.6-0.4,1c0,0.4,0.1,0.7,0.4,1c0.3,0.3,0.7,0.5,1.1,0.7
		c0.5,0.2,0.9,0.3,1.5,0.5c0.5,0.1,1.1,0.3,1.6,0.4c0.4,0.1,0.8,0.2,1.3,0.3c0.5,0.1,1,0.2,1.6,0.4c0.6,0.2,1.1,0.4,1.6,0.7
		c0.5,0.3,1,0.6,1.5,1c0.4,0.4,0.8,0.9,1,1.6c0.3,0.6,0.4,1.4,0.4,2.3c0,1-0.2,1.9-0.5,2.7c-0.4,0.8-0.9,1.4-1.5,1.9
		c-0.7,0.5-1.5,0.9-2.4,1.1c-0.9,0.3-1.9,0.4-3.1,0.4c-1,0-1.9-0.1-2.7-0.2c-0.8-0.2-1.5-0.4-2.2-0.6c-0.7-0.3-1.3-0.6-1.8-0.9
		C223,112.4,222.4,112,221.8,111.5z"/>
	<path class="st2" d="M244.8,97.6v5h9.6v3.4h-9.6v4.7h10.8v3.4H241V94.3h14.6v3.4H244.8z"/>
	<path class="st2" d="M276.4,114.1l-13.1-11.8v11.8h-3.8V94.3h0.4l13.1,12v-12h3.8v19.8H276.4z M271.2,93.2c0.4-0.2,0.8-0.5,1.2-1
		c0.3-0.3,0.5-0.6,0.6-0.9c0.1-0.3,0.3-0.5,0.3-0.7l-2.2-0.8c-0.1,0.2-0.2,0.4-0.4,0.6c-0.1,0.1-0.2,0.3-0.4,0.4
		c-0.2,0.1-0.4,0.2-0.6,0.2c-0.3,0-0.5-0.1-0.6-0.1c-0.1-0.1-0.3-0.2-0.5-0.4c-0.3-0.3-0.6-0.5-1-0.8c-0.4-0.3-1-0.4-1.8-0.4
		c-0.5,0-1,0.1-1.3,0.4c-0.4,0.2-0.7,0.5-1,0.8c-0.3,0.3-0.5,0.7-0.7,1.1c-0.2,0.4-0.3,0.7-0.4,1l2.2,0.6c0.1-0.3,0.2-0.6,0.3-0.7
		c0.1-0.2,0.2-0.4,0.4-0.5c0.1-0.2,0.3-0.2,0.5-0.2c0.3,0,0.5,0,0.7,0.1c0.2,0.1,0.3,0.2,0.5,0.4c0.3,0.3,0.6,0.5,1,0.8
		c0.4,0.3,0.9,0.4,1.6,0.4h0.1C270.3,93.5,270.8,93.4,271.2,93.2z"/>
	<path class="st2" d="M290.5,114.5c-1.4,0-2.7-0.3-4-0.8c-1.2-0.5-2.3-1.3-3.3-2.2c-0.9-0.9-1.7-2-2.2-3.3s-0.8-2.6-0.8-4
		c0-1.4,0.3-2.7,0.8-4c0.5-1.3,1.3-2.4,2.2-3.3c0.9-0.9,2-1.7,3.3-2.2c1.2-0.5,2.6-0.8,4-0.8c1.4,0,2.8,0.3,4,0.8
		c1.2,0.5,2.3,1.3,3.3,2.2c0.9,0.9,1.7,2,2.2,3.3c0.5,1.3,0.8,2.6,0.8,4c0,1.4-0.3,2.8-0.8,4c-0.5,1.2-1.3,2.3-2.2,3.3
		c-0.9,0.9-2,1.7-3.3,2.2C293.2,114.3,291.9,114.5,290.5,114.5z M290.5,97.5c-0.9,0-1.7,0.2-2.5,0.6c-0.8,0.4-1.5,0.9-2.1,1.5
		c-0.6,0.6-1.1,1.3-1.4,2.2c-0.3,0.8-0.5,1.7-0.5,2.6c0,0.9,0.2,1.8,0.5,2.6c0.3,0.8,0.8,1.5,1.4,2.2c0.6,0.6,1.3,1.1,2.1,1.5
		c0.8,0.4,1.6,0.6,2.5,0.6c0.9,0,1.7-0.2,2.5-0.6c0.8-0.4,1.5-0.9,2.1-1.5c0.6-0.6,1.1-1.3,1.4-2.2c0.3-0.8,0.5-1.7,0.5-2.6
		c0-0.9-0.2-1.7-0.5-2.6c-0.3-0.8-0.8-1.5-1.4-2.2c-0.6-0.6-1.3-1.1-2.1-1.5C292.2,97.6,291.4,97.5,290.5,97.5z"/>
	<path class="st2" d="M332.7,103.3c0,0.4,0,0.7,0,1.1c0,0.3,0,0.6,0,0.9c0,0.3,0,0.5,0,0.6c-0.1,1.2-0.4,2.4-1,3.5
		c-0.6,1.1-1.3,2-2.2,2.8c-0.9,0.8-1.9,1.4-3.1,1.8c-1.2,0.4-2.4,0.7-3.7,0.7c-1.4,0-2.7-0.3-4-0.8c-1.2-0.5-2.3-1.3-3.3-2.2
		c-0.9-0.9-1.7-2-2.2-3.3c-0.5-1.2-0.8-2.6-0.8-4c0-1.4,0.3-2.7,0.8-4c0.5-1.3,1.3-2.4,2.2-3.3c0.9-0.9,2-1.7,3.3-2.2s2.6-0.8,4-0.8
		c1.8,0,3.4,0.4,4.9,1.2c1.5,0.8,2.7,1.9,3.6,3.3l-3.3,2c-0.6-0.9-1.3-1.6-2.3-2.1c-0.9-0.6-1.9-0.9-3-0.9c-0.9,0-1.8,0.2-2.5,0.6
		c-0.8,0.4-1.5,0.9-2.1,1.5c-0.6,0.6-1.1,1.3-1.4,2.2c-0.3,0.8-0.5,1.7-0.5,2.6c0,0.9,0.2,1.8,0.5,2.6c0.3,0.8,0.8,1.5,1.4,2.1
		c0.6,0.6,1.3,1.1,2.1,1.5c0.8,0.4,1.6,0.6,2.5,0.6c0.7,0,1.3-0.1,2-0.3c0.6-0.2,1.2-0.5,1.7-0.9c0.5-0.4,1-0.8,1.4-1.4
		c0.4-0.5,0.7-1.1,0.9-1.7h-7.3v-3.4H332.7z"/>
	<path class="st2" d="M339.7,114.1h-3.8V94.3h9c1,0,1.9,0.2,2.8,0.5c0.8,0.3,1.6,0.8,2.2,1.4c0.6,0.6,1.1,1.3,1.4,2.2
		c0.3,0.8,0.5,1.8,0.5,2.8c0,1.5-0.4,2.8-1.1,3.9c-0.8,1.1-1.8,1.9-3,2.4c1.7,2.2,3.3,4.4,4.9,6.7h-4.5c-0.8-1-1.6-2.1-2.3-3.1
		c-0.8-1-1.5-2.1-2.3-3.2h-3.8V114.1z M339.7,104.5h5.2c0.3,0,0.7-0.1,1.1-0.2c0.4-0.1,0.7-0.3,1-0.6c0.3-0.3,0.5-0.6,0.7-1
		c0.2-0.4,0.3-0.9,0.3-1.5c0-0.3,0-0.6-0.1-1c-0.1-0.4-0.2-0.8-0.4-1.1c-0.2-0.4-0.5-0.7-0.9-0.9c-0.4-0.3-0.9-0.4-1.6-0.4h-5.2
		V104.5z"/>
	<path class="st2" d="M353.1,114.1l10.2-19.8h0.4l10.2,19.8h-4.1l-1.5-3.1h-9.4l-1.5,3.1H353.1z M360.6,107.7h5.7l-2.8-6
		L360.6,107.7z M365.4,89.2l3.1,1.4l-3.6,2.7h-2.7L365.4,89.2z"/>
	<path class="st2" d="M380,97.6v4.9h9.6v3.5H380v8.1h-3.8V94.3h14.6v3.4H380z"/>
	<path class="st2" d="M398.2,114.1h-3.8V94.3h3.8V114.1z"/>
	<path class="st2" d="M421.3,109.3c-0.4,0.8-1,1.5-1.6,2.2c-0.6,0.6-1.3,1.2-2.1,1.7c-0.8,0.5-1.6,0.8-2.5,1.1
		c-0.9,0.3-1.8,0.4-2.8,0.4c-1.4,0-2.7-0.3-4-0.8c-1.2-0.5-2.3-1.3-3.3-2.2c-0.9-0.9-1.7-2-2.2-3.3c-0.5-1.2-0.8-2.6-0.8-4
		c0-1.4,0.3-2.7,0.8-4c0.5-1.2,1.3-2.3,2.2-3.3c0.9-0.9,2-1.7,3.3-2.2c1.2-0.5,2.6-0.8,4-0.8c1,0,1.9,0.1,2.8,0.4
		c0.9,0.3,1.7,0.6,2.5,1.1c0.8,0.5,1.5,1,2.1,1.7c0.6,0.6,1.2,1.4,1.6,2.1l-3.6,1.4c-0.3-0.4-0.6-0.8-1-1.2c-0.4-0.4-0.8-0.7-1.3-1
		c-0.5-0.3-1-0.5-1.5-0.7c-0.5-0.2-1.1-0.2-1.6-0.2c-0.9,0-1.8,0.2-2.5,0.6c-0.8,0.4-1.5,0.9-2,1.5c-0.6,0.6-1,1.3-1.4,2.2
		c-0.3,0.8-0.5,1.7-0.5,2.6c0,0.9,0.2,1.8,0.5,2.6c0.3,0.8,0.8,1.5,1.4,2.1c0.6,0.6,1.3,1.1,2,1.5c0.8,0.4,1.6,0.6,2.5,0.6
		c0.6,0,1.1-0.1,1.6-0.2c0.5-0.2,1-0.4,1.5-0.7c0.5-0.3,0.9-0.6,1.3-1c0.4-0.4,0.7-0.8,1-1.2L421.3,109.3z"/>
	<path class="st2" d="M433.5,114.5c-1.4,0-2.7-0.3-4-0.8c-1.2-0.5-2.3-1.3-3.3-2.2c-0.9-0.9-1.7-2-2.2-3.3c-0.5-1.2-0.8-2.6-0.8-4
		c0-1.4,0.3-2.7,0.8-4c0.5-1.3,1.3-2.4,2.2-3.3c0.9-0.9,2-1.7,3.3-2.2c1.2-0.5,2.6-0.8,4-0.8c1.4,0,2.8,0.3,4,0.8
		c1.2,0.5,2.3,1.3,3.3,2.2c0.9,0.9,1.7,2,2.2,3.3c0.5,1.3,0.8,2.6,0.8,4c0,1.4-0.3,2.8-0.8,4c-0.5,1.2-1.3,2.3-2.2,3.3
		c-0.9,0.9-2,1.7-3.3,2.2C436.3,114.3,434.9,114.5,433.5,114.5z M433.5,97.5c-0.9,0-1.7,0.2-2.5,0.6c-0.8,0.4-1.5,0.9-2.1,1.5
		c-0.6,0.6-1.1,1.3-1.4,2.2c-0.3,0.8-0.5,1.7-0.5,2.6c0,0.9,0.2,1.8,0.5,2.6c0.3,0.8,0.8,1.5,1.4,2.2c0.6,0.6,1.3,1.1,2.1,1.5
		c0.8,0.4,1.6,0.6,2.5,0.6c0.9,0,1.7-0.2,2.5-0.6c0.8-0.4,1.5-0.9,2.1-1.5c0.6-0.6,1.1-1.3,1.4-2.2c0.3-0.8,0.5-1.7,0.5-2.6
		c0-0.9-0.2-1.7-0.5-2.6c-0.3-0.8-0.8-1.5-1.4-2.2c-0.6-0.6-1.3-1.1-2.1-1.5C435.2,97.6,434.4,97.5,433.5,97.5z"/>
</g>
</svg>
